<svg preserveAspectRatio="none" xmlns="http://www.w3.org/2000/svg" viewBox="0 0 1440 320"><path fill="#ffe4d6" fill-opacity="1" d="M0,288L40,266.7C80,245,160,203,240,181.3C320,160,400,160,480,176C560,192,640,224,720,250.7C800,277,880,299,960,288C1040,277,1120,235,1200,202.7C1280,171,1360,149,1400,138.7L1440,128L1440,320L1400,320C1360,320,1280,320,1200,320C1120,320,1040,320,960,320C880,320,800,320,720,320C640,320,560,320,480,320C400,320,320,320,240,320C160,320,80,320,40,320L0,320Z"></path></svg>
